<?xml version="1.0" encoding="UTF-8"?>
<svg width="112px" height="48px" viewBox="0 0 112 48" version="1.1" xmlns="http://www.w3.org/2000/svg" xmlns:xlink="http://www.w3.org/1999/xlink">
    <title>Combined Shape Copy</title>
    <g id="Styles" stroke="none" stroke-width="1" fill="none" fill-rule="evenodd">
        <g id="icons-furgo" transform="translate(-12.000000, -44.000000)" fill="#02164F">
            <path d="M32.0394845,75.2941343 C36.6128625,75.2941343 40.3176098,79.0347622 40.3176098,83.646822 C40.3176098,88.2588818 36.611618,91.9995097 32.0394845,91.9995097 C27.4685954,91.9995097 23.7613593,88.2588818 23.7613593,83.646822 C23.7613593,79.0347622 27.467351,75.2941343 32.0394845,75.2941343 Z M102.190747,75.2941343 C106.762881,75.2941343 110.468872,79.0347622 110.468872,83.646822 C110.468872,88.2588818 106.761636,91.9995097 102.190747,91.9995097 C97.619858,91.9995097 93.9126218,88.2588818 93.9126218,83.646822 C93.9126218,79.0347622 97.6186136,75.2941343 102.190747,75.2941343 Z M32.0071286,78.9631893 C29.4435481,78.9631893 27.3653055,81.0614065 27.3653055,83.646822 C27.3653055,86.2334932 29.4435481,88.3304548 32.0071286,88.3304548 C34.5719537,88.3304548 36.6489517,86.2334932 36.6489517,83.646822 C36.6489517,81.0601508 34.5707092,78.9631893 32.0071286,78.9631893 Z M102.190747,78.9631893 C99.6271665,78.9631893 97.548924,81.0614065 97.548924,83.646822 C97.548924,86.2334932 99.6271665,88.3304548 102.190747,88.3304548 C104.755572,88.3304548 106.83257,86.2334932 106.83257,83.646822 C106.83257,81.0601508 104.754328,78.9631893 102.190747,78.9631893 Z M83.744167,44.6069223 C86.6636622,44.7689032 88.7966608,45.77218 90.3870763,46.8445184 C95.2690795,50.0590224 100.964957,54.2190426 107.601644,59.0721902 C112.998853,61.2859287 115.963148,62.4423967 119.997676,64.9813526 C121.761071,66.3563065 122.924638,68.3126335 123.061529,70.3581128 C123.061529,70.3581128 122.853704,74.7165282 123.164818,74.4453044 C123.164818,74.4453044 123.73478,74.3963334 123.73478,74.7165282 C124.157895,79.4629442 124.069538,80.8391537 123.507044,81.8336409 C122.094586,83.0014099 120.707017,83.8615408 118.547885,84.4228234 C116.299151,84.8309147 114.36651,85.0380995 111.963465,85.1950577 C112.733783,78.0076277 108.679344,73.8275169 102.638751,73.2499107 C97.1096308,72.7212755 92.1766049,77.9398218 92.3806958,84.6915358 L42.4120302,83.8590295 C42.4705197,77.3860733 37.9431866,73.0992308 32.0867739,73.0339362 C26.3734736,72.9711529 21.8212514,76.9151986 21.7801844,82.7829241 C17.9833473,82.7678561 16.6530232,82.6196875 13.2817903,81.9227931 C12.5712056,81.8060162 12.1891574,81.7030516 12,80.9697429 L12,78.9857912 C12.0485338,78.6455059 12.3683592,78.4785023 12.803919,78.3868388 C12.416893,69.1928551 12.4106707,60.7196235 13.4000137,54.4789654 C13.9425967,51.3121767 14.523758,49.2566521 15.3749663,46.3686212 C15.5579014,44.9961787 16.0531951,44.5152587 17.5564987,44.3432325 L26.7082325,44.0468954 L27.7572375,44.0476852 L27.7572375,44.0476852 L29.8647358,44.0475241 C31.9779634,44.0462998 34.1071863,44.0420806 36.2416725,44.0366166 L38.3775156,44.0308024 C38.7336493,44.0297859 39.0898299,44.0287509 39.4460077,44.0277057 L42.6501885,44.0182401 L42.6501885,44.0182401 L44.7822485,44.0122698 C46.9116905,44.0065976 49.0320861,44.002014 51.1327033,44.0002693 L54.2674537,44 C65.3509506,44.0081684 75.7192243,44.1219756 83.744167,44.6069223 Z M32.0071286,82.3032598 C32.7438469,82.3032598 33.3399416,82.9047236 33.3399416,83.646822 C33.3399416,84.3901761 32.7426025,84.9903842 32.0071286,84.9903842 C31.2728992,84.9903842 30.6755601,84.3889204 30.6755601,83.646822 C30.6755601,82.9047236 31.2728992,82.3032598 32.0071286,82.3032598 Z M102.190747,82.3032598 C102.926221,82.3032598 103.522316,82.9047236 103.522316,83.646822 C103.522316,84.3901761 102.926221,84.9903842 102.190747,84.9903842 C101.455273,84.9903842 100.859179,84.3889204 100.859179,83.646822 C100.859179,82.9047236 101.455273,82.3032598 102.190747,82.3032598 Z M109.781932,62.6960412 C112.189956,64.7025949 113.507835,66.463038 115.491499,69.4791469 C118.610107,69.7855293 119.659184,70.0806107 121.657782,70.7862948 C121.642848,69.1752758 121.254578,68.2624069 120.390925,67.0670132 C118.835354,65.2689 114.067841,63.0488832 109.781932,62.6960412 Z M76.3247168,46.8696318 C75.7958228,46.8784214 75.2992846,47.0366353 75.3142181,48.0838604 L75.9974247,55.802437 C76.5462301,57.3205367 79.8788848,59.6045924 81.4020997,59.8795832 L89.879338,60.916763 L89.9293928,60.8065435 C89.9383806,60.7885456 89.9486128,60.7711058 89.9614721,60.7547822 L92.8548337,57.0668922 C93.2231929,56.5972733 93.8989328,56.5169107 94.3631151,56.8898434 C94.8285419,57.2602647 94.9081871,57.9420912 94.5385835,58.4129658 L92.3371398,61.2181228 L96.1601104,61.686486 L96.4687357,53.9214499 C92.9120787,50.988215 90.2128524,49.5467109 86.0725453,47.7410637 C83.3272741,46.917347 80.4140012,46.7264859 76.3247168,46.8696318 Z M68.9271764,46.9994097 L49.6724236,46.9994097 C48.394857,46.9994097 47.2998,47.928442 47.2998,49.0123129 L47.2998,49.0123129 L47.2998,56.9865065 C47.2998,58.0703774 48.394857,58.9994097 49.6724236,58.9994097 L49.6724236,58.9994097 L68.8359217,58.9994097 C70.1134882,58.9994097 71.2085452,58.0703774 71.2085452,56.9865065 L71.2085452,56.9865065 L71.2998,56.9865065 L71.2998,49.0123129 C71.2998,47.928442 70.204743,46.9994097 68.9271764,46.9994097 L68.9271764,46.9994097 Z M40.9271764,46.9994097 L21.6724236,46.9994097 C20.394857,46.9994097 19.2998,47.928442 19.2998,49.0123129 L19.2998,49.0123129 L19.2998,56.9865065 C19.2998,58.0703774 20.394857,58.9994097 21.6724236,58.9994097 L21.6724236,58.9994097 L40.8359217,58.9994097 C42.1134882,58.9994097 43.2085452,58.0703774 43.2085452,56.9865065 L43.2085452,56.9865065 L43.2998,56.9865065 L43.2998,49.0123129 C43.2998,47.928442 42.204743,46.9994097 40.9271764,46.9994097 L40.9271764,46.9994097 Z" id="Combined-Shape-Copy"></path>
        </g>
    </g>
</svg>