<?xml version="1.0" encoding="UTF-8"?>
<svg width="135px" height="135px" viewBox="0 0 135 135" version="1.1" xmlns="http://www.w3.org/2000/svg" xmlns:xlink="http://www.w3.org/1999/xlink">
    <title>icons-pago-online</title>
    <g id="icons-pago-online" stroke="none" stroke-width="1" fill="none" fill-rule="evenodd">
        <path d="M71.3061055,61.0793768 L71.3061055,63.7597571 C72.8441865,66.6931549 74.7055225,69.453055 76.5394503,70.7550917 C77.0473072,70.1141138 77.4108683,69.2883928 77.7437967,68.5317496 C77.9477456,68.0682856 78.1396027,67.6329347 78.3612863,67.2409582 C77.8784191,65.989525 77.3971642,64.3854736 77.1126031,63.3942872 L71.3061055,61.0793768 Z M71.3061055,49.5465929 L71.3061055,57.1475634 L79.3149287,60.337995 C79.851806,60.5524576 80.2548671,61.0054796 80.4048058,61.5605119 C80.6893669,62.6119406 81.5470808,65.5830903 82.1049173,66.6931549 C82.5128151,67.5060242 82.2596928,68.494801 81.5099992,69.0120815 C81.5156421,69.0514398 81.2746116,69.6000462 81.0972647,69.9992518 C80.485418,71.3880374 79.6518878,73.2900873 77.8195722,74.5061783 C77.310103,74.8435351 76.6635931,74.9021709 76.1001137,74.6740535 C71.1424628,72.6217995 67.3464337,64.3525412 65.9437813,60.8922241 C64.7789348,58.0158556 60.146151,52.6952565 57.2747441,52.1113079 C56.6104995,51.9827911 56.3251322,52.1586985 56.112316,52.3715546 C53.4900008,54.9876765 55.3327959,60.5685222 58.1574478,64.6497365 C61.3351812,69.2377892 63.6165067,74.5945336 63.9687821,78.2918037 C64.0244045,78.8620974 64.0510065,79.4058845 64.0759963,79.9424425 C64.1872412,82.3280371 64.2743024,84.2108095 67.2908113,88.3458403 C68.8248617,90.4446816 70.9812383,91.7467183 73.4786046,93.2551852 C77.039246,95.4078431 81.4277748,98.0585038 85.1552834,104 C97.101207,103.504407 102.556235,94.3941661 104,91.4776361 C102.43048,89.3603204 98.5772166,83.8630107 97.0423601,79.013908 C96.6255949,77.7030358 96.1056462,75.8548023 95.5115342,73.7358802 C93.7066268,67.3052166 90.6868933,56.5451405 88.3322107,54.1981009 C86.6054971,52.4791875 77.9646742,50.5731215 71.3061055,49.5465929 L71.3061055,49.5465929 Z M48.4057886,31 L48.4057886,89.4173498 L63.5955476,89.4173498 C60.6846406,85.087134 60.5298652,82.5489255 60.4153958,80.1119241 C60.3920183,79.634002 60.3710591,79.149654 60.3226918,78.6371929 C60.0276511,75.5616232 57.9462438,70.773566 55.1409389,66.7220712 C51.6359199,61.658506 49.1103393,54.1876589 53.5222457,49.790775 C54.7032145,48.613239 56.2533874,48.1722654 58.006703,48.5361289 C61.5012423,49.2445782 65.3553121,53.1972756 67.6422806,56.5403211 L67.6422806,34.6522892 C67.6422806,32.6393935 65.9985976,31 63.9784556,31 L48.4057886,31 Z M36.5348068,89.4173498 L46.5348068,89.4173498 L46.5348068,31 L36.5348068,31 L36.5348068,89.4173498 Z M34.6654372,31 C32.6452952,31 31,32.6393935 31,34.6522892 L31,85.7658638 C31,87.7779563 32.6452952,89.4173498 34.6654372,89.4173498 L34.6654372,31 Z" id="Fill-1" fill="#02164F"></path>
    </g>
</svg>