<svg xmlns="http://www.w3.org/2000/svg" width="135" height="135" viewBox="0 0 135 135">
  <defs>
    <filter id="icons-fingueranualclass-gris-a" color-interpolation-filters="auto">
      <feColorMatrix in="SourceGraphic" values="0 0 0 0 0.321569 0 0 0 0 0.321569 0 0 0 0 0.321569 0 0 0 1.000000 0"/>
    </filter>
  </defs>
  <g fill="none" fill-rule="evenodd" filter="url(#icons-fingueranualclass-gris-a)">
    <g fill="#000" fill-rule="nonzero" transform="translate(32 30)">
      <path d="M38.08 45.7886266L31.44 45.7886266C30.16 45.7886266 29.04 46.8347639 29.04 48.2027897L29.04 52.306867C29.04 53.5944206 30.08 54.72103 31.44 54.72103L38.08 54.72103C39.36 54.72103 40.48 53.6748927 40.48 52.306867L40.48 48.2027897C40.48 46.9152361 39.36 45.7886266 38.08 45.7886266zM20.96 45.7886266L14.32 45.7886266C13.04 45.7886266 11.92 46.8347639 11.92 48.2027897L11.92 52.306867C11.92 53.5944206 12.96 54.72103 14.32 54.72103L20.96 54.72103C22.24 54.72103 23.36 53.6748927 23.36 52.306867L23.36 48.2027897C23.36 46.9152361 22.24 45.7886266 20.96 45.7886266zM38.08 30.7403433L31.44 30.7403433C30.16 30.7403433 29.04 31.7864807 29.04 33.1545064L29.04 37.2585837C29.04 38.5461373 30.08 39.6727468 31.44 39.6727468L38.08 39.6727468C39.36 39.6727468 40.48 38.6266094 40.48 37.2585837L40.48 33.1545064C40.48 31.8669528 39.36 30.7403433 38.08 30.7403433zM20.96 30.7403433L14.32 30.7403433C13.04 30.7403433 11.92 31.7864807 11.92 33.1545064L11.92 37.2585837C11.92 38.5461373 12.96 39.6727468 14.32 39.6727468L20.96 39.6727468C22.24 39.6727468 23.36 38.6266094 23.36 37.2585837L23.36 33.1545064C23.36 31.8669528 22.24 30.7403433 20.96 30.7403433zM55.2 30.7403433L48.56 30.7403433C47.28 30.7403433 46.16 31.7864807 46.16 33.1545064L46.16 37.2585837C46.16 38.5461373 47.2 39.6727468 48.56 39.6727468L55.2 39.6727468C56.48 39.6727468 57.6 38.6266094 57.6 37.2585837L57.6 33.1545064C57.6 31.8669528 56.48 30.7403433 55.2 30.7403433z"/>
      <path d="M69.52,46.5128755 L69.52,14.5654506 C69.52,12.473176 68.72,10.6223176 67.44,9.17381974 L67.44,9.09334764 L67.36,9.09334764 C65.84,7.40343348 63.68,6.35729614 61.28,6.35729614 L55.28,6.35729614 L55.28,2.7360515 C55.28,1.20708155 54.08,0 52.56,0 L48.48,0 C46.96,0 45.76,1.20708155 45.76,2.7360515 L45.76,6.35729614 L23.68,6.35729614 L23.68,2.7360515 C23.68,1.20708155 22.48,0 20.96,0 L16.88,0 C15.36,0 14.16,1.20708155 14.16,2.7360515 L14.16,6.35729614 L8.16,6.35729614 C5.76,6.35729614 3.6,7.40343348 2.08,9.09334764 L2.08,9.09334764 L2.08,9.17381974 C0.8,10.6223176 0,12.473176 0,14.5654506 L0,58.4227468 C0,62.9291845 3.68,66.6309013 8.16,66.6309013 L46.48,66.6309013 C49.12,71.6201717 54.32,75 60.32,75 C68.96,75 76,67.9184549 76,59.2274678 C76,53.9967811 73.44,49.3293991 69.52,46.5128755 Z M44.64,59.2274678 C44.64,59.8712446 44.72,60.5150215 44.8,61.1587983 L8.16,61.1587983 C6.64,61.1587983 5.44,59.9517167 5.44,58.4227468 L5.44,24.9463519 L64,24.9463519 L64,43.9377682 C62.8,43.6158798 61.6,43.4549356 60.32,43.4549356 C51.68,43.4549356 44.64,50.5364807 44.64,59.2274678 Z M66.8,57.6180258 L60.32,64.6190987 C59.92,65.0214592 59.36,65.2628755 58.8,65.2628755 C58.24,65.2628755 57.68,65.0214592 57.28,64.6190987 L53.44,60.4345494 C52.64,59.6298283 52.72,58.3422747 53.52,57.5375536 C54.32,56.7328326 55.6,56.8133047 56.4,57.6180258 L58.8,60.193133 L63.76,54.8015021 C64.56,53.9967811 65.84,53.916309 66.64,54.72103 C67.52,55.5257511 67.6,56.8133047 66.8,57.6180258 Z"/>
    </g>
  </g>
</svg>
