<?xml version="1.0" encoding="UTF-8"?>
<svg width="50px" height="50px" viewBox="0 0 50 50" version="1.1" xmlns="http://www.w3.org/2000/svg" xmlns:xlink="http://www.w3.org/1999/xlink">
    <title>icons-instagram</title>
    <defs>
        <linearGradient x1="8.3918274%" y1="91.6080519%" x2="91.6081538%" y2="8.39109063%" id="linearGradient-1">
            <stop stop-color="#FFD600" offset="0%"></stop>
            <stop stop-color="#FF0100" offset="50%"></stop>
            <stop stop-color="#D800B9" offset="100%"></stop>
        </linearGradient>
        <linearGradient x1="14.6448468%" y1="85.3554237%" x2="85.3554617%" y2="14.6448087%" id="linearGradient-2">
            <stop stop-color="#FF6400" offset="0%"></stop>
            <stop stop-color="#FF0100" offset="50%"></stop>
            <stop stop-color="#FD0056" offset="100%"></stop>
        </linearGradient>
        <linearGradient x1="14.6471982%" y1="85.3539573%" x2="85.3546499%" y2="14.6465056%" id="linearGradient-3">
            <stop stop-color="#F30072" offset="0%"></stop>
            <stop stop-color="#E50097" offset="100%"></stop>
        </linearGradient>
    </defs>
    <g id="icons-instagram" stroke="none" stroke-width="1" fill="none" fill-rule="evenodd">
        <g id="instagram" transform="translate(7.000000, 7.000000)" fill-rule="nonzero">
            <path d="M34.3579478,10.1266526 C34.274076,8.29251803 33.9827599,7.03996394 33.5568284,5.94411058 C33.1243239,4.79435849 32.4459886,3.75292965 31.5694111,2.8921274 C30.7088717,2.01554985 29.66718,1.33695161 28.5174279,0.904184212 C27.4213116,0.478515625 26.1690204,0.187462423 24.3348858,0.104116587 C22.4973333,0.0199819712 21.9102314,0 17.2307692,0 C12.5513071,0 11.9642052,0.0199819712 10.1266526,0.103590712 C8.29251803,0.187462423 7.04022685,0.478778529 5.94411058,0.904710019 C4.79435849,1.33721458 3.75292965,2.01554985 2.8921274,2.8921274 C2.01554985,3.75266675 1.33695161,4.79409552 0.904184212,5.94384767 C0.478515625,7.03996394 0.187462423,8.29251803 0.104116587,10.1263897 C0.0199819712,11.9642052 0,12.5510442 0,17.2305063 C0,21.9102314 0.0199819712,22.4973332 0.104116587,24.3348858 C0.187725327,26.1687575 0.4790415,27.4213116 0.904972923,28.5174279 C1.33747748,29.6669171 2.01581282,30.7086088 2.89239031,31.5691482 C3.75292965,32.4457256 4.79462139,33.124061 5.94437348,33.5565655 C7.04022685,33.9827599 8.29278093,34.2738131 10.1269155,34.3576848 C11.9647311,34.4415565 12.55157,34.4612756 17.2310321,34.4612756 C21.9104943,34.4612756 22.4975962,34.4415565 24.3351487,34.3576848 C26.1692833,34.2738131 27.4215745,33.9827599 28.5176908,33.5565655 C30.8321815,32.6615835 32.6618465,30.8319186 33.5568284,28.5174279 C33.9830228,27.4213116 34.274076,26.1687575 34.3579478,24.3348858 C34.4415565,22.4970703 34.4615385,21.9102314 34.4615385,17.2307692 C34.4615385,12.5510442 34.4415565,11.9642052 34.3579478,10.1266526 Z M31.2562725,24.1936974 C31.1797627,25.8737605 30.8989633,26.7860953 30.6631235,27.3931791 C30.0833834,28.8960337 28.8957708,30.0836463 27.3929162,30.6633864 C26.7858324,30.8992263 25.8734976,31.1800256 24.1934345,31.2565354 C22.3769155,31.3396184 21.831881,31.3569712 17.2307692,31.3569712 C12.6293945,31.3569712 12.0846229,31.3396184 10.267841,31.2565354 C8.58804087,31.1800256 7.6757061,30.8992263 7.06835938,30.6633864 C6.32008717,30.3870568 5.64306642,29.9466647 5.08725209,29.3742864 C4.5148738,28.818472 4.07448165,28.1417143 3.79815208,27.3931791 C3.56231218,26.7860953 3.2815129,25.8737605 3.20500304,24.1936974 C3.12218301,22.3769155 3.10456731,21.831881 3.10456731,17.2310321 C3.10456731,12.6299204 3.12218301,12.0851487 3.20500304,10.268104 C3.28177581,8.58804087 3.56231218,7.6757061 3.79815208,7.06862228 C4.07448165,6.32008717 4.5151367,5.64306642 5.08725209,5.08725209 C5.64306642,4.5148738 6.32008717,4.07448165 7.06862228,3.79841498 C7.6757061,3.56231218 8.58804087,3.28177581 10.268104,3.20500304 C12.0848858,3.12218301 12.6299204,3.10456731 17.2307692,3.10456731 L17.2305063,3.10456731 C21.8313551,3.10456731 22.3763897,3.12218301 24.1934345,3.20526594 C25.8734976,3.28177581 26.7855694,3.56257515 27.3929162,3.79841498 C28.1411884,4.07474456 28.8182091,4.5151367 29.3740234,5.08725209 C29.9464018,5.64306642 30.3867939,6.32008717 30.6628606,7.06862228 C30.8989633,7.6757061 31.1797627,8.58804087 31.2562725,10.268104 C31.3390925,12.0848858 31.3567083,12.6299204 31.3567083,17.2307692 C31.3567083,21.831881 31.3393555,22.3766526 31.2562725,24.1936974 Z" id="Shape" fill="url(#linearGradient-1)"></path>
            <path d="M17.2305063,8.38243687 C12.3438627,8.38243687 8.38243687,12.3441256 8.38243687,17.2307692 C8.38243687,22.1174128 12.3438627,26.0788386 17.2305063,26.0788386 C22.1174128,26.0788386 26.0788386,22.1174128 26.0788386,17.2307692 C26.0788386,12.3441256 22.1174128,8.38243687 17.2305063,8.38243687 Z M17.2305063,22.9742713 C14.0586313,22.9740084 11.4870042,20.4026442 11.4872671,17.2305063 C11.4872671,14.0586313 14.0586313,11.4870042 17.2307692,11.4870042 C20.4029071,11.4872671 22.9742713,14.0586313 22.9742713,17.2305063 C22.9742713,20.4026442 20.4026442,22.9742713 17.2305063,22.9742713 Z" id="Shape" fill="url(#linearGradient-2)"></path>
            <path d="M28.4961313,8.03301531 C28.4961313,9.17487981 27.5703877,10.1006235 26.4285232,10.1006235 C25.2863958,10.1006235 24.3606521,9.17487981 24.3606521,8.03301531 C24.3606521,6.8908879 25.2863958,5.96514423 26.4285232,5.96514423 C27.5703877,5.96514423 28.4961313,6.8908879 28.4961313,8.03301531 L28.4961313,8.03301531 Z" id="Path" fill="url(#linearGradient-3)"></path>
        </g>
    </g>
</svg>