<?xml version="1.0" encoding="UTF-8"?>
<svg width="135px" height="135px" viewBox="0 0 135 135" version="1.1" xmlns="http://www.w3.org/2000/svg" xmlns:xlink="http://www.w3.org/1999/xlink">
    <title>icons-servicio-personalizado</title>
    <g id="icons-servicio-personalizado" stroke="none" stroke-width="1" fill="none" fill-rule="evenodd">
        <path d="M51.988435,42.1966414 L48.5261022,42.0063242 C47.4385918,41.9464909 46.3718661,42.3129275 45.5498638,43.0329551 C43.8713297,44.5027578 41.1874184,47.3443313 40.3630694,51.0472336 C39.1337535,56.5684589 41.0335443,63.329281 45.9504726,70.0901031 C50.8674008,76.8509252 60.0304471,87.6682406 76.2334806,92.2882483 C81.4548045,93.7769814 85.5621342,92.7733373 88.7311342,90.7288647 C91.2410573,89.1099859 92.9712179,86.5118019 93.5947597,83.5738867 L94.1475663,80.9706321 C94.3232307,80.1431075 93.9068658,79.3034134 93.1442005,78.9491463 L81.442736,73.510403 C80.6830878,73.1574881 79.7823047,73.3805952 79.2714027,74.0482264 L74.6776434,80.0528506 C74.3306726,80.5068398 73.736967,80.6863396 73.2002518,80.4966985 C70.0543832,79.381839 59.516528,74.9315278 53.7343518,63.7004502 C53.4835942,63.2133329 53.5459484,62.622099 53.9016353,62.2066465 L58.2919055,57.0853238 C58.7404532,56.5623742 58.8537635,55.8271348 58.5842326,55.1916175 L53.5402493,43.2922326 C53.2717241,42.6587435 52.6699728,42.2341639 51.988435,42.1966414" id="Fill-4" fill="#02164F"></path>
    </g>
</svg>