<?xml version="1.0" encoding="UTF-8"?>
<svg width="135px" height="135px" viewBox="0 0 135 135" version="1.1" xmlns="http://www.w3.org/2000/svg" xmlns:xlink="http://www.w3.org/1999/xlink">
    <title>icons-mascarilla</title>
    <g id="icons-mascarilla" stroke="none" stroke-width="1" fill="none" fill-rule="evenodd">
        <path d="M85.4320255,81.65 C86.0805349,81.6637931 86.6002309,82.2201149 86.587156,82.8913793 C86.5735798,83.4431034 86.2049066,83.9212644 85.6852107,84.05 C80.6570417,85.4201149 73.8165997,86.85 67.313738,86.85 C60.8153182,86.85 53.9748762,85.4201149 48.951149,84.05 C48.320407,83.8890805 47.9339664,83.2270115 48.089431,82.5787356 C48.2182445,82.0454023 48.6713128,81.6637931 49.1998924,81.65 C49.3198222,81.65 49.4353102,81.6637931 49.5463563,81.695977 C54.4545955,83.033908 61.1484566,84.4178161 67.313738,84.4178161 C73.4790195,84.4178161 80.1773224,83.033908 85.0855616,81.695977 C85.1966077,81.6637931 85.3165375,81.65 85.4320255,81.65 M49.1362786,73.6221788 C49.1758094,73.6176288 49.2153401,73.6221788 49.2548708,73.6221788 L84.1165785,73.6221788 C84.7578547,73.6085288 85.2893233,74.1363288 85.3027523,74.8006288 C85.3156772,75.4649288 84.8105623,76.0154788 84.1648938,76.0291288 L84.1165785,76.0291288 L49.2548708,76.0291288 C48.6092023,76.0518788 48.0733413,75.5286288 48.0557721,74.8643288 C48.0338106,74.2182288 48.5125716,73.6676788 49.1318863,73.6221788 C49.1318863,73.6221788 49.1362786,73.6221788 49.1362786,73.6221788 M67.3189787,63.45 C73.8162401,63.45 80.6601406,64.8407645 85.6908519,66.1939409 C86.3174687,66.3583894 86.7085487,67.030279 86.5530055,67.6974701 C86.4019064,68.3646612 85.7619573,68.7781318 85.1308964,68.6136832 C85.1220082,68.6136832 85.1175641,68.6089847 85.1086759,68.6089847 C80.1979551,67.2886981 73.4962655,65.9402203 67.3189787,65.9402203 C61.146136,65.9402203 54.4444464,67.2886981 49.5337256,68.6089847 C48.9071088,68.7828303 48.2627155,68.3881539 48.0938401,67.7256613 C47.9294087,67.0584702 48.3027124,66.3771835 48.9293292,66.1986394 C48.9382174,66.1986394 48.9471056,66.1939409 48.9559938,66.1939409 C53.9822609,64.8407645 60.8217173,63.45 67.3189787,63.45 M66.6833121,56.3 C52.4160829,56.3 41.6880797,61.1132396 41.6880797,61.1132396 C41.2688447,61.300248 40.9908257,61.7187906 40.9908257,62.1863116 L40.9908257,88.1047833 C40.9908257,88.5723042 41.2644317,88.9952994 41.6880797,89.1823078 C41.6880797,89.1823078 52.4160829,94 66.6833121,94 C80.9549543,94 91.6697185,89.1823078 91.6697185,89.1823078 C92.0977795,88.9952994 92.3669725,88.5723042 92.3669725,88.1047833 L92.3669725,62.1863116 C92.3669725,61.7232432 92.0977795,61.300248 91.6697185,61.1132396 C91.6697185,61.1132396 80.9549543,56.3 66.6833121,56.3 M96.2179983,42 C93.0363677,42 90.440367,44.6432826 90.440367,47.881859 L90.440367,57.7619606 C91.8563674,58.2728471 92.5774787,58.5838215 92.7479232,58.6593439 L92.7479232,47.881859 C92.7479232,45.9093927 94.2775533,44.3456356 96.2179983,44.3456356 C98.1584433,44.3456356 99.6924438,45.9093927 99.6924438,47.881859 L99.6924438,72.5554579 C99.6924438,75.9495216 99.1286658,78.9837434 97.813184,81.3915739 C97.1969616,82.5199668 96.2005168,83.3773677 95.0642202,84.1325913 L95.0642202,87.5 C97.1576282,86.2250049 98.7440731,84.5279731 99.8322957,82.5377368 C101.41437,79.6501172 102,76.2116286 102,72.5554579 L102,47.881859 C102,44.6432826 99.3996289,42 96.2179983,42 M37.7798165,42 C34.5969826,42 32,44.6432826 32,47.881859 L32,72.5554579 C32,76.2116286 32.5902233,79.6501172 34.1685242,82.5377368 C35.2571583,84.5279731 36.8398312,86.2205624 38.934031,87.5 L38.934031,84.1192638 C37.8016766,83.3684827 36.804855,82.5155243 36.1927716,81.3915739 C34.8767922,78.9837434 34.317173,75.9495216 34.317173,72.5554579 L34.317173,47.881859 C34.317173,45.9093927 35.8386376,44.3456356 37.7798165,44.3456356 C39.7209954,44.3456356 41.246832,45.9093927 41.246832,47.881859 L41.246832,58.6593439 C41.412969,58.5838215 42.1430971,58.2728471 43.559633,57.7619606 L43.559633,47.881859 C43.559633,44.6432826 40.9670224,42 37.7798165,42" id="Fill-1" fill="#02164F"></path>
    </g>
</svg>