<?xml version="1.0" encoding="UTF-8"?>
<svg width="135px" height="135px" viewBox="0 0 135 135" version="1.1" xmlns="http://www.w3.org/2000/svg" xmlns:xlink="http://www.w3.org/1999/xlink">
    <title>icons-parking-vigilado</title>
    <g id="icons-parking-vigilado" stroke="none" stroke-width="1" fill="none" fill-rule="evenodd">
        <path d="M96.9790201,51.5 L97.2653338,52.0849057 C98.124275,54.1320755 97.2653338,56.7641509 95.2611379,57.9339623 L82.6633346,63.490566 L84.0949031,67 L79.8001975,69.0471698 L79.8001975,83.6698113 C81.8043934,84.5471698 83.5222757,86.009434 84.3812168,88.3490566 L107,88.3490566 L107,93.6132075 L84.0949031,93.6132075 C82.9496483,96.245283 80.3728249,98 77.5096878,98 C73.5012958,98 70.0655313,94.7830189 70.0655313,90.6886792 C70.0655313,87.4716981 72.0697273,84.8396226 74.6465507,83.6698113 L74.6465507,71.3867925 L70.0655313,73.4339623 L68.347649,69.9245283 L54.8909046,76.0660377 C52.6003949,77.2358491 50.3098852,76.0660377 49.1646304,74.0188679 L43.4383562,60.8584906 L43.4383562,60.5660377 L57.467728,69.6320755 L96.9790201,51.5 Z M42.6248924,65.467061 C43.4514468,67.3434408 43.7593789,68.0214604 44.0368037,68.5993075 L44.1403613,68.8134494 C44.4177862,69.3834126 44.7257182,69.9904766 45.5522727,71.7328293 C45.8450107,72.5872522 45.2595346,73.1568675 44.6740586,73.7264828 L35.8919177,82.2707123 C35.3064416,82.8403276 34.1354895,82.2707123 33.8427515,81.4162894 C30.9153712,74.8657134 30.3298951,73.4416752 27.1097768,66.8910993 C26.8170387,66.321484 27.1097768,64.8974457 27.9879909,64.8974457 L40.5757262,64.8974457 C41.4539402,64.6126381 42.3321543,64.8974457 42.6248924,65.467061 Z M99.3287671,47.9368937 L57.6742918,67 L40.1506849,55.8554148 C90.9978721,32.6864086 91.8596888,29.4603445 99.3287671,47.9368937 Z" id="Combined-Shape" fill="#02164F"></path>
    </g>
</svg>