<?xml version="1.0" encoding="UTF-8"?>
<svg width="67px" height="59px" viewBox="0 0 67 59" version="1.1" xmlns="http://www.w3.org/2000/svg" xmlns:xlink="http://www.w3.org/1999/xlink">
    <title>Combined Shape Copy</title>
    <g id="Styles" stroke="none" stroke-width="1" fill="none" fill-rule="evenodd">
        <g id="icons-furgo-copy" transform="translate(-34.000000, -38.000000)" fill="#CC9014">
            <path d="M92.9361442,71.073411 L92.9361442,76.0255267 L91.7915774,77.8499904 L91.7915774,90.0588074 L92.616503,93.1864594 L88.999951,97 L88.275524,96.218087 L88.275524,76.1764222 C88.275524,75.0652826 87.3668496,74.1873452 86.2501991,74.1873452 L86.2501991,74.1873452 L85.0511956,74.1873452 L85.0511956,71.073411 C86.2934693,71.4849442 87.6041379,71.7044285 88.9734306,71.7044285 C90.3552856,71.7044285 91.6813082,71.4849442 92.9361442,71.073411 L92.9361442,71.073411 Z M86.2507574,74.6534751 C87.1022034,74.6534751 87.80011,75.325646 87.80011,76.1761478 L87.80011,76.1761478 L87.80011,95.7116269 L85.4007072,93.186185 L86.1949249,90.058533 L86.1949249,89.7155887 L85.0517539,88.1668523 L86.1949249,86.6153723 L85.0517539,85.0803536 L86.1949249,83.5151558 L85.0517539,81.9787654 L86.1949249,80.4286571 L86.1949249,77.849716 L85.0517539,76.0252523 L85.0517539,74.6534751 Z M64.168993,42.4304288 C63.1081749,44.103997 62.5079753,45.9970495 62.5079753,48.013562 C62.5079753,48.973806 62.6475566,49.9340501 62.9127611,50.8531408 C63.3035888,52.2112002 64.5877369,53.1577265 66.0254245,53.1577265 C66.4162522,53.1577265 66.8070799,53.0891376 67.1839494,52.9519599 C68.7472602,52.3620957 69.5861439,50.6748098 69.1101716,49.1247015 C69.0124647,48.7680395 68.9566321,48.3839418 68.9566321,48.013562 C68.9566321,46.5183249 69.7801619,45.1465477 71.1061844,44.1451503 C73.1999042,45.6266697 74.6096755,47.9312554 74.8609219,50.6062209 C75.2517496,54.5157859 74.4421779,60.5516056 70.0314083,69.3035441 C70.0314083,69.3035441 57.6645035,93.6937426 40.2168388,76.5465277 C22.7691741,59.3993127 47.5867324,47.2453668 47.5867324,47.2453668 C54.8310028,43.7198994 60.2607161,42.540171 64.168993,42.4304288 Z M92.8119168,46.2716793 C94.3891857,46.2716793 95.8687477,46.6832125 97.1528958,47.4102544 C100.51541,49.358178 101.773037,53.569534 100.530764,57.2047436 L100.530764,57.2047436 L98.6743322,62.7878767 C97.3050394,66.8894906 93.4107207,69.6467627 88.9734306,69.6467627 C84.5905772,69.6467627 80.6962585,66.8894906 79.3269657,62.7878767 L79.3269657,62.7878767 L77.4705342,57.2047436 C76.2436144,53.569534 77.4858881,49.358178 80.8484021,47.4102544 C81.9804066,46.7792369 83.2505966,46.3814215 84.6045353,46.2853971 C84.7022423,46.4774459 84.7859911,46.6832125 84.8418236,46.8752613 C84.9534886,47.2730767 85.0232793,47.6571743 85.0093212,48.0275541 L85.0093212,48.0275541 L85.0093212,48.3019096 C84.6868883,48.3567806 84.3812052,48.4116517 84.0880845,48.4802406 C83.4585727,48.6448539 83.083099,49.2621536 83.2226803,49.8794533 C83.4027402,50.5516242 84.0741263,50.8534151 84.6310558,50.7162374 C87.0039382,50.1538088 90.9973597,50.1538088 93.3702421,50.7162374 C93.9969622,50.8534151 94.6125158,50.4967531 94.7800134,49.8794533 C94.9181989,49.2621536 94.5427252,48.6448539 93.9271716,48.4802406 C93.2027445,48.3156273 92.3512985,48.1921674 91.457978,48.1098608 L91.457978,48.1098608 L91.457978,48.0549897 C91.4719362,47.4788432 91.428666,46.8752613 91.3170009,46.2716793 L91.3170009,46.2716793 Z M59.5711843,52.2523535 C58.6904262,51.3867621 57.2666968,51.3867621 56.3859387,52.2523535 L56.3859387,52.2523535 L54.1051799,54.4938375 C53.2327967,55.3511982 53.2327967,56.7517827 54.1135548,57.6173741 L54.1135548,57.6173741 L59.4748732,62.8863703 C60.3556314,63.7519618 61.7807566,63.7519618 62.6531398,62.894601 L62.6531398,62.894601 L64.9338986,60.6531171 C65.8132609,59.7875257 65.8132609,58.3883129 64.9338986,57.5227215 L64.9338986,57.5227215 Z M77.0108929,38 C83.1231588,38 88.1773983,41.6214918 89.1823838,46.2718165 C89.308007,46.8342451 89.3777977,47.4241093 89.3638395,48.0139735 C88.5961423,48.0002558 87.8424032,48.0139735 87.1026222,48.0688446 C87.1165803,47.4515449 87.0188734,46.8479629 86.8374177,46.2718165 C85.8184741,42.8835268 81.896239,40.2222791 77.0108929,40.2222791 C71.399724,40.2222791 66.8633311,43.7065931 66.8633311,48.0139735 C66.8633311,48.5901199 66.9470799,49.1525486 67.1006194,49.6875417 C67.2681169,50.2362526 66.9749962,50.8261168 66.430629,51.0318834 C65.8025131,51.2650855 65.1046065,50.9221412 64.9231508,50.2911237 C64.7137788,49.5640818 64.6021138,48.7958865 64.6021138,48.0139735 C64.6021138,42.4857114 70.1714084,38 77.0108929,38 Z" id="Combined-Shape-Copy"></path>
        </g>
    </g>
</svg>