<?xml version="1.0" encoding="UTF-8"?>
<svg width="150px" height="71px" viewBox="0 0 150 71" version="1.1" xmlns="http://www.w3.org/2000/svg" xmlns:xlink="http://www.w3.org/1999/xlink">
    <title>logo-header-sticky</title>
    <defs>
        <linearGradient x1="23.2066837%" y1="61.5155268%" x2="77.9807683%" y2="44.1947547%" id="linearGradient-1">
            <stop stop-color="#FFB900" offset="0.06407077%"></stop>
            <stop stop-color="#FF0041" offset="100%"></stop>
        </linearGradient>
    </defs>
    <g id="logo-header-sticky" stroke="none" stroke-width="1" fill="none" fill-rule="evenodd">
        <g id="Logo-Copy" fill-rule="nonzero">
            <path d="M64.7717908,40.2186124 L64.1055644,43.9709456 L64.1055644,43.9689206 L57.1233492,43.9689206 L56.3295475,48.3915302 L63.1376123,48.3915302 L62.4713858,52.1458884 L57.0119739,52.1458884 L57.1233492,52.2370136 C58.405177,53.2657158 59.4905793,54.6224687 60.3491812,56.2667723 C61.2057581,57.9110759 61.641134,59.8348301 61.641134,61.9853848 C61.641134,64.6219405 60.9607325,66.8150203 59.6161296,68.5018489 C58.2755767,70.1866526 56.4307977,71.0391794 54.1344427,71.0391794 C51.8401127,71.0391794 50.2950343,70.4681282 49.5437577,69.3402007 C49.0780067,68.6213242 48.8410812,67.7343722 48.8410812,66.70162 C48.8410812,65.7427025 48.9204518,64.7751578 49.0744148,63.8196913 L49.1144568,63.5810882 L50.8640606,53.6869167 L53.1847156,40.2732876 L64.7717908,40.2186124 Z M95.6328579,48.0371544 C97.2556228,48.0371544 98.3910185,48.4278234 99.0088042,49.1940409 L99.0510653,49.2481071 L99.1199155,49.3392323 L99.2960909,48.3915302 L103.267124,48.3915302 L100.871544,61.9185596 C100.474643,64.2128896 99.5552914,66.0515936 98.1398133,67.3860715 C96.7243353,68.7185244 95.0861067,69.3948759 93.2676528,69.3948759 C91.4491988,69.3948759 90.1207959,69.0587251 89.3229442,68.3945237 C88.5271175,67.7343722 88.1241416,66.8555203 88.1241416,65.782268 C88.1241416,64.2324646 89.1112019,62.8605276 91.0565183,61.7048625 L91.1616482,61.643159 L91.2608734,61.5864589 L91.1515232,61.5520338 C89.6327699,61.0700828 88.8632682,59.8996302 88.8632682,58.0730762 C88.8632682,57.6666579 88.8993538,57.2192331 88.9730011,56.7396594 L88.9989435,56.578623 L89.5456947,53.381141 C89.8332453,51.7611375 90.5075718,50.4509597 91.552474,49.4870576 C92.5953513,48.5251805 93.9683043,48.0371544 95.6328579,48.0371544 Z M55.3271703,54.0048424 L53.6605917,63.5345131 C53.5512414,64.1723895 53.4965663,64.7373657 53.4965663,65.2112168 C53.4965663,66.5517697 53.9461173,67.2301462 54.8330692,67.2301462 C55.4162705,67.2301462 55.9184716,66.7603451 56.3275225,65.8328931 C56.7284733,64.9196161 56.9329988,63.7025885 56.9329988,62.2182603 C56.9329988,60.735957 56.7811234,59.2192287 56.4814228,57.7106005 C56.1924257,56.2538991 55.8431745,55.0871711 55.4409318,54.237652 L55.3960204,54.1445677 L55.3271703,54.0048424 Z M96.2522628,62.4273346 L96.5603099,60.6407818 L96.4732347,60.6812819 C93.9318542,61.8699595 92.6439514,63.0890122 92.6439514,64.3080648 C92.6439514,64.6847156 92.7553266,64.9945413 92.9720021,65.2314668 C93.1907026,65.4704173 93.5025533,65.5898926 93.8974291,65.5898926 C95.0845465,65.5898926 95.8759145,64.5260714 96.2522628,62.4273346 L96.2522628,62.4273346 Z M82.5796795,48.0108294 C84.193608,48.0108294 85.2547103,48.4077302 85.7346364,49.1893819 C86.038387,49.689558 86.1922874,50.2687093 86.1922874,50.9126607 C86.1922874,51.4958619 86.1562018,52.0511789 86.0825544,52.5653255 L86.0566121,52.7351646 L85.3195105,56.9451488 C85.3012854,57.056524 85.2911604,57.1597993 85.2911604,57.2549745 C85.2911604,57.7774256 85.582761,58.0447262 86.1598873,58.0447262 C86.5225189,58.0447262 86.8558178,57.9757083 87.1534133,57.8408579 L87.2270646,57.8057757 L87.0954393,60.7845571 C86.2550625,61.4750836 85.2891354,61.8254094 84.2199331,61.8254094 C81.7514527,61.8254094 80.5526501,60.8230322 80.5526501,58.7595527 C80.5526501,58.4441583 80.5805572,58.1039576 80.6363714,57.7470901 L80.6620004,57.5931502 L81.3181018,53.9562423 C81.3727769,53.6261666 81.401127,53.338616 81.401127,53.0996654 C81.401127,52.2856137 81.0022011,51.8725128 80.2164994,51.8725128 C79.4744799,51.8725128 78.8510859,52.1436567 78.3590273,52.6768662 L78.3048952,52.7371896 L78.2947702,52.7473147 L76.7679169,61.4406586 L72.223807,61.4406586 L74.530287,48.3935552 L78.7463462,48.3935552 L78.4203205,50.143159 L78.5458708,49.9872337 C79.6049481,48.6750308 80.963726,48.0108294 82.5796795,48.0108294 Z M110.510565,48.3935552 L109.236837,55.6066209 C109.182162,55.9346716 109.153812,56.2687973 109.153812,56.598873 C109.153812,57.50405 109.668163,57.961701 110.680666,57.961701 C111.483218,57.961701 112.138901,57.690557 112.633189,57.1573476 L112.687445,57.0970241 L112.69757,57.0868991 L114.250748,48.3935552 L118.796883,48.3935552 L117.276105,56.9451488 C117.25788,57.056524 117.247755,57.1699243 117.247755,57.2812995 C117.247755,57.7875506 117.50898,58.0447262 118.025357,58.0427012 C118.444677,58.0427012 118.811616,57.9728592 119.118067,57.8364179 L119.187709,57.8037507 L119.056084,60.7825321 C118.199507,61.4730586 117.223455,61.8233844 116.154253,61.8233844 C114.165894,61.8233844 113.055709,61.0647837 112.850698,59.5649397 L112.825145,59.356929 L112.748195,59.4683043 C111.668868,61.0316077 110.198715,61.8254094 108.374186,61.8254094 C106.587668,61.8254094 105.404959,61.4274002 104.854575,60.6408872 L104.820303,60.5901567 C104.461877,60.0717556 104.281652,59.4743793 104.281652,58.8142279 C104.281652,58.201664 104.327594,57.6282362 104.419479,57.1048628 L104.445677,56.9633738 L105.96848,48.3935552 L110.510565,48.3935552 Z M70.4377531,48.3935552 L68.9169748,56.9451488 C68.8987498,57.056524 68.8886248,57.1597993 68.8886248,57.2549745 C68.8886248,57.7774256 69.1822504,58.0447262 69.7593767,58.0427012 C70.1220082,58.0427012 70.4553072,57.9736833 70.7529026,57.8388329 L70.826554,57.8037507 L70.6949287,60.7825321 C69.8545519,61.4730586 68.8886248,61.8233844 67.8194224,61.8233844 C66.1872689,61.8233844 65.1160416,61.4467336 64.6361155,60.699507 C64.3141398,60.1993309 64.1521395,59.6606797 64.1521395,59.0997535 C64.1521395,58.5781461 64.1827677,58.1075857 64.244024,57.7005504 L64.2614897,57.5911252 L65.8936432,48.3935552 L70.4377531,48.3935552 Z M129.053531,47.9824793 C132.666138,47.9824793 134.496742,49.3635323 134.494721,52.0891882 C134.494721,52.440189 134.464318,52.8263898 134.407784,53.2378352 L134.385367,53.3932911 L134.063391,55.2927452 L125.726448,55.2927452 L125.608998,55.9630217 C125.572548,56.1817221 125.554323,56.3862476 125.554323,56.572548 C125.554323,57.6032752 126.169924,58.1257264 127.382902,58.1257264 C127.830428,58.1257264 128.219229,57.981951 128.537154,57.7025004 C128.822545,57.4511299 129.003859,57.1574233 129.079451,56.8296125 L129.094031,56.7588484 L133.52879,56.8114985 C132.917239,60.1365557 130.537859,61.8233844 126.453425,61.8233844 C122.713242,61.8233844 120.817838,60.5152316 120.817838,57.937401 C120.817838,57.6220065 120.845745,57.2818058 120.901559,56.9249383 L120.927188,56.7709984 L121.502289,53.381141 C121.808065,51.6538123 122.616042,50.3071844 123.901919,49.3817574 C125.189822,48.4522803 126.923226,47.9824793 129.053531,47.9824793 Z M145.729442,48.0108294 C146.893819,48.0108294 147.780771,48.292305 148.359923,48.8451312 C148.939074,49.3979574 149.232699,50.1674591 149.232699,51.1313612 C149.232699,51.7429125 149.127399,52.3443388 148.920849,52.91944 C148.726448,53.4607118 148.533842,53.8728317 148.348094,54.1422937 L148.313347,54.1911428 L148.027822,54.5536186 L144.050713,54.5536186 C144.455714,54.1405177 144.660239,53.6342666 144.660239,53.0449903 C144.660239,52.7047896 144.550889,52.421289 144.332189,52.2025885 C144.113488,51.983888 143.811763,51.8725128 143.435112,51.8725128 C142.823922,51.8725128 142.284284,52.1700179 141.830724,52.7559498 L141.772583,52.8323649 L140.247755,61.4406586 L135.703645,61.4406586 L138.010125,48.3935552 L142.226184,48.3935552 L141.867758,50.3902095 L141.999384,50.2039091 C143.022011,48.747931 144.277514,48.0108294 145.729442,48.0108294 Z M96.4934848,51.8441627 C95.7725832,51.8441627 95.201532,52.0345131 94.7924811,52.4050889 C94.4058065,52.7571359 94.1488891,53.2316299 94.0286737,53.8164175 L94.0108294,53.9096672 L93.6564536,55.9569466 C93.6179785,56.125022 93.5997535,56.3518225 93.5997535,56.6515232 C93.5997535,56.9572988 93.7415038,57.2590245 94.0229794,57.5486001 C94.304455,57.8402007 94.782356,57.9880261 95.4404825,57.9880261 C96.0742279,57.9880261 96.6314572,57.7454143 97.101421,57.2673573 L97.1698362,57.1962493 L97.994013,52.5691143 L97.985913,52.5529142 C97.7226624,52.0831132 97.2204613,51.8441627 96.4934848,51.8441627 Z M128.356929,51.5444621 C127.828403,51.5444621 127.338352,51.7226624 126.902976,52.0750132 C126.48739,52.411348 126.191735,52.9118965 126.021295,53.5660912 L125.997799,53.6605917 L125.983624,53.7233668 L129.778482,53.7233668 L129.786582,53.6848917 C129.859482,53.373041 129.895932,53.0794154 129.897957,52.8121148 C129.897957,52.5367142 129.774432,52.2532136 129.529407,51.971738 C129.284381,51.6882374 128.889505,51.5444621 128.356929,51.5444621 Z M69.2268005,40.2874626 C70.7880789,40.2874626 72.0597817,41.5591653 72.0597817,43.1204437 C72.0597817,44.6817221 70.7880789,45.9534249 69.2268005,45.9534249 C67.6655221,45.9534249 66.3938193,44.6817221 66.3938193,43.1204437 C66.3938193,41.5591653 67.6655221,40.2874626 69.2268005,40.2874626 Z" id="Shape" fill="#02164F"></path>
            <path d="M72.9852087,34.1456242 C69.8586019,34.1456242 67.3151963,31.6022187 67.3151963,28.4756119 C67.3151963,25.3490051 69.8586019,22.8055996 72.9852087,22.8055996 C76.1118155,22.8055996 78.655221,25.3490051 78.655221,28.4756119 C78.655221,31.6022187 76.1118155,34.1456242 72.9852087,34.1456242 Z M72.9852087,26.6531079 C71.9808065,26.6531079 71.1627047,27.4712097 71.1627047,28.4756119 C71.1627047,29.4800141 71.9808065,30.2981159 72.9852087,30.2981159 C73.9896108,30.2981159 74.8077126,29.4800141 74.8077126,28.4756119 C74.8077126,27.4712097 73.9916359,26.6531079 72.9852087,26.6531079 Z M95.4627575,34.1456242 C92.3361507,34.1456242 89.7927452,31.6022187 89.7927452,28.4756119 C89.7927452,25.3490051 92.3361507,22.8055996 95.4627575,22.8055996 C98.5893643,22.8055996 101.13277,25.3490051 101.13277,28.4756119 C101.13277,31.6022187 98.5893643,34.1456242 95.4627575,34.1456242 Z M95.4627575,26.6531079 C94.4583553,26.6531079 93.6402536,27.4712097 93.6402536,28.4756119 C93.6402536,29.4800141 94.4583553,30.2981159 95.4627575,30.2981159 C96.4671597,30.2981159 97.2852615,29.4800141 97.2852615,28.4756119 C97.2852615,27.4712097 96.4691847,26.6531079 95.4627575,26.6531079 Z M117.940306,34.1456242 C114.8137,34.1456242 112.270294,31.6022187 112.270294,28.4756119 C112.270294,25.3490051 114.8137,22.8055996 117.940306,22.8055996 C121.066913,22.8055996 123.610319,25.3490051 123.610319,28.4756119 C123.610319,31.6022187 121.066913,34.1456242 117.940306,34.1456242 Z M117.940306,26.6531079 C116.935904,26.6531079 116.117802,27.4712097 116.117802,28.4756119 C116.117802,29.4800141 116.935904,30.2981159 117.940306,30.2981159 C118.944709,30.2981159 119.76281,29.4800141 119.76281,28.4756119 C119.76281,27.4712097 118.946734,26.6531079 117.940306,26.6531079 Z M144.637964,24.1076774 C139.296003,17.6661384 130.570259,13.6323296 121.85464,13.5817045 L53.0490403,13.5817045 C53.3973411,9.88404649 52.6096144,6.83236485 50.7000352,4.49348477 C48.300405,1.55317838 44.2139461,0 38.8800845,0 L37.1770558,0 L34.1010741,17.6296883 L48.2518049,17.6296883 L44.167371,39.4106357 L39.4936609,39.4106357 C38.653284,37.1932559 36.5088044,35.6137524 34.0018489,35.6137524 C31.4948935,35.6137524 29.3504138,37.1932559 28.510037,39.4106357 L19.9564184,39.4106357 C19.1160416,37.1932559 16.9715619,35.6137524 14.4646064,35.6137524 C11.957651,35.6137524 9.81317133,37.1932559 8.97279451,39.4106357 L4.26263427,39.4106357 C5.18198627,32.1489699 10.9957739,26.6389329 18.37894,26.225832 L19.1038915,22.1494982 C14.0049304,22.1920232 9.2461701,24.1745026 5.68418736,27.7445853 C2.07562951,31.3632682 0.0870751893,36.2253038 0.0870751893,41.4356401 L0.0870751893,43.4606445 L8.93431942,43.4606445 C9.74634619,45.7306744 11.9191759,47.358778 14.4646064,47.358778 C17.010037,47.358778 19.1828667,45.7306744 19.9948935,43.4606445 L28.4756119,43.4606445 C29.2876387,45.7306744 31.4604684,47.358778 34.0058989,47.358778 C36.5513295,47.358778 38.7241592,45.7306744 39.5361859,43.4606445 L47.5329283,43.4606445 L52.3767389,17.6296883 L121.844515,17.6296883 C129.385631,17.6742384 136.924723,21.147121 141.523508,26.691583 C143.785438,29.419264 146.237718,33.7628984 145.749692,39.4369607 L139.658479,39.4369607 L138.937577,43.4869695 L149.206374,43.4869695 L149.510125,41.8244409 C150.648177,35.5611023 148.918824,29.2694136 144.637964,24.1076774 Z M14.4625814,43.3087691 C13.4581793,43.3087691 12.6400775,42.4906674 12.6400775,41.4862652 C12.6400775,40.481863 13.4581793,39.6637612 14.4625814,39.6637612 C15.4669836,39.6637612 16.2850854,40.481863 16.2850854,41.4862652 C16.2850854,42.4906674 15.4690086,43.3087691 14.4625814,43.3087691 Z M34.0038739,43.3087691 C32.9994717,43.3087691 32.18137,42.4906674 32.18137,41.4862652 C32.18137,40.481863 32.9994717,39.6637612 34.0038739,39.6637612 C35.0082761,39.6637612 35.8263779,40.481863 35.8263779,41.4862652 C35.8263779,42.4906674 35.0103011,43.3087691 34.0038739,43.3087691 Z M48.9767565,13.5796795 L38.9205846,13.5796795 L40.5709632,4.11480895 C43.0961437,4.31528438 45.9169748,5.03821095 47.5612784,7.05309033 C48.8309562,8.60626871 49.3048072,10.7993485 48.9767565,13.5796795 Z" id="Shape" fill="url(#linearGradient-1)"></path>
        </g>
    </g>
</svg>