<?xml version="1.0" encoding="UTF-8" standalone="no"?>
<!-- Created with Inkscape (http://www.inkscape.org/) -->

<svg
   width="300"
   height="350"
   viewBox="0 0 79.374998 92.604166"
   version="1.1"
   id="svg1"
   inkscape:version="1.4.4 (dcaf3e7d9e, 2026-05-05)"
   sodipodi:docname="tarifa_gold.svg"
   xmlns:inkscape="http://www.inkscape.org/namespaces/inkscape"
   xmlns:sodipodi="http://sodipodi.sourceforge.net/DTD/sodipodi-0.dtd"
   xmlns="http://www.w3.org/2000/svg"
   xmlns:svg="http://www.w3.org/2000/svg">
  <sodipodi:namedview
     id="namedview1"
     pagecolor="#ffffff"
     bordercolor="#000000"
     borderopacity="0.25"
     inkscape:showpageshadow="2"
     inkscape:pageopacity="0.0"
     inkscape:pagecheckerboard="0"
     inkscape:deskcolor="#d1d1d1"
     inkscape:document-units="px"
     inkscape:zoom="1.4485269"
     inkscape:cx="128.75149"
     inkscape:cy="190.19322"
     inkscape:window-width="1865"
     inkscape:window-height="1022"
     inkscape:window-x="55"
     inkscape:window-y="34"
     inkscape:window-maximized="1"
     inkscape:current-layer="layer1"
     showgrid="true">
    <inkscape:grid
       id="grid3"
       units="px"
       originx="0"
       originy="0"
       spacingx="0.26458333"
       spacingy="0.26458333"
       empcolor="#0099e5"
       empopacity="0.30196078"
       color="#0099e5"
       opacity="0.14901961"
       empspacing="5"
       enabled="true"
       visible="true" />
  </sodipodi:namedview>
  <defs
     id="defs1">
    <inkscape:path-effect
       effect="fillet_chamfer"
       id="path-effect4-1"
       is_visible="true"
       lpeversion="1"
       nodesatellites_param="F,0,0,1,0,7.5335672,0,1 @ F,0,0,1,0,4.5693829,0,1 @ F,0,0,1,0,5.2286477,0,1 @ F,0,0,1,0,0,0,1"
       radius="0"
       unit="px"
       method="auto"
       mode="F"
       chamfer_steps="1"
       flexible="false"
       use_knot_distance="true"
       apply_no_radius="true"
       apply_with_radius="true"
       only_selected="false"
       hide_knots="false" />
  </defs>
  <rect
     style="fill:#ba801c;fill-opacity:1;stroke-width:0.278111"
     id="rect1-6"
     width="79.375"
     height="92.604172"
     x="0"
     y="3.2451418e-08"
     rx="4.201107"
     ry="4.201107"
     inkscape:export-filename="01_finguer.com_web/public/img/tarifes_gold.svg"
     inkscape:export-xdpi="96"
     inkscape:export-ydpi="96"
     sodipodi:insensitive="true" />
  <g
     inkscape:label="Capa 1"
     inkscape:groupmode="layer"
     id="layer1">
    <text
       xml:space="preserve"
       style="font-style:normal;font-variant:normal;font-weight:bold;font-stretch:normal;font-size:7.40833px;line-height:0;font-family:arial;-inkscape-font-specification:'arial Bold';text-align:start;writing-mode:lr-tb;direction:ltr;text-anchor:start;white-space:pre;inline-size:70.8594;display:inline;fill:#ba801c;fill-opacity:1;stroke-width:0.264999"
       x="3.6178672"
       y="23.914299"
       id="text1-7"
       transform="translate(0,0.26458414)"><tspan
         x="3.6178672"
         y="23.914299"
         id="tspan2"><tspan
           style="line-height:0.9;fill:#ffffff;stroke-width:0.265"
           id="tspan1">Gold Finguer Class</tspan></tspan></text>
    <text
       xml:space="preserve"
       style="font-style:normal;font-variant:normal;font-weight:bold;font-stretch:normal;font-size:4.23333px;line-height:1;font-family:arial;-inkscape-font-specification:'arial Bold';text-align:start;writing-mode:lr-tb;direction:ltr;text-anchor:start;white-space:pre;inline-size:65.4638;display:inline;fill:#ffffff;fill-opacity:1;stroke-width:0.264999"
       x="3.9398115"
       y="33.72197"
       id="text2-9"><tspan
         x="3.9398115"
         y="33.72197"
         id="tspan11"><tspan
           style="stroke-width:0.265"
           id="tspan8">Llegas a la terminal. 
</tspan></tspan><tspan
         x="3.9398115"
         y="37.955297"
         id="tspan18"><tspan
           style="stroke-width:0.265"
           id="tspan17">Nos das las llaves y disfrutas </tspan></tspan><tspan
         x="3.9398115"
         y="42.188626"
         id="tspan20"><tspan
           style="stroke-width:0.265"
           id="tspan19">del viaje.</tspan></tspan></text>
    <path
       style="fill:#ffffff;fill-opacity:1;stroke-width:0.264999"
       id="rect3-0"
       width="22.945047"
       height="14.297853"
       x="129.83162"
       y="56.453453"
       inkscape:path-effect="#path-effect4-1"
       sodipodi:type="rect"
       d="m 137.36519,56.453453 h 10.84209 a 4.5693829,4.5693829 45 0 1 4.56939,4.569383 v 4.499823 a 5.2286477,5.2286477 135 0 1 -5.22865,5.228648 h -17.7164 V 63.98702 a 7.5335672,7.5335672 135 0 1 7.53357,-7.533567 z"
       transform="matrix(-0.95722252,0,0,0.84285714,150.21002,-44.407196)" />
    <text
       xml:space="preserve"
       style="font-style:normal;font-variant:normal;font-weight:bold;font-stretch:normal;font-size:3.70417px;font-family:arial;-inkscape-font-specification:'arial Bold';text-align:start;writing-mode:lr-tb;direction:ltr;text-anchor:start;fill:#ba801c;fill-opacity:1;stroke-width:0.264999"
       x="8.3073492"
       y="7.0806646"
       id="text4-6"><tspan
         sodipodi:role="line"
         id="tspan4-2"
         style="font-style:normal;font-variant:normal;font-weight:bold;font-stretch:normal;font-size:3.70417px;font-family:arial;-inkscape-font-specification:'arial Bold';fill:#ba801c;fill-opacity:1;stroke-width:0.265"
         x="8.3073492"
         y="7.0806646">desde</tspan></text>
    <text
       xml:space="preserve"
       style="font-style:normal;font-variant:normal;font-weight:bold;font-stretch:normal;font-size:8.46667px;font-family:arial;-inkscape-font-specification:'arial Bold';text-align:start;writing-mode:lr-tb;direction:ltr;text-anchor:start;fill:#ba801c;fill-opacity:1;stroke-width:0.264999"
       x="6.4781904"
       y="14.21846"
       id="text5-6"><tspan
         sodipodi:role="line"
         id="tspan5-1"
         style="font-style:normal;font-variant:normal;font-weight:bold;font-stretch:normal;font-size:8.46667px;font-family:arial;-inkscape-font-specification:'arial Bold';fill:#ba801c;fill-opacity:1;stroke-width:0.265"
         x="6.4781904"
         y="14.21846">140</tspan></text>
    <text
       xml:space="preserve"
       style="font-style:normal;font-variant:normal;font-weight:bold;font-stretch:normal;font-size:4.7625px;font-family:arial;-inkscape-font-specification:'arial Bold';text-align:start;writing-mode:lr-tb;direction:ltr;text-anchor:start;fill:#ba801c;fill-opacity:1;stroke-width:0.264999"
       x="20.93446"
       y="12.46912"
       id="text6-8"><tspan
         sodipodi:role="line"
         id="tspan6-7"
         style="font-style:normal;font-variant:normal;font-weight:bold;font-stretch:normal;font-size:4.7625px;font-family:arial;-inkscape-font-specification:'arial Bold';fill:#ba801c;fill-opacity:1;stroke-width:0.265"
         x="20.93446"
         y="12.46912">€</tspan></text>
    <g
       id="g2"
       transform="matrix(1.3588938,0,0,1.4442184,-38.199809,-27.254463)"
       style="stroke-width:1.22959">
      <path
         d="m 81.387053,23.891311 c -0.134385,0.05604 -0.30214,0.01799 -0.374294,-0.0844 -0.07305,-0.103083 -0.02345,-0.231762 0.110935,-0.28711 0.634945,-0.264277 0.930771,-0.606039 0.990298,-0.940191 0.03158,-0.17849 -0.0044,-0.357673 -0.09199,-0.523711 -0.08929,-0.168114 -0.230889,-0.321007 -0.410369,-0.444152 -0.349039,-0.239371 -0.838776,-0.365284 -1.35016,-0.267736 -0.207439,0.03944 -0.38692,0.118993 -0.543852,0.231069 -0.166853,0.118995 -0.311159,0.274656 -0.437427,0.458681 -0.07125,0.103773 -0.238104,0.143207 -0.372489,0.08925 -0.135286,-0.05466 -0.186695,-0.182642 -0.116346,-0.285724 0.155129,-0.225535 0.336412,-0.419246 0.551067,-0.572831 0.224575,-0.159812 0.485229,-0.274655 0.788269,-0.332077 0.703491,-0.133522 1.373611,0.03666 1.849819,0.363209 0.241713,0.166038 0.433819,0.372893 0.554675,0.601195 0.121758,0.230379 0.171363,0.483587 0.125366,0.740254 -0.08207,0.457989 -0.464485,0.917362 -1.273498,1.254279 z m -2.115882,1.672145 c -1.046217,-1.077867 -1.071471,-2.099002 0.19842,-3.048185 l -0.914538,-0.387423 c -0.732351,-0.218617 -2.076198,1.392644 -1.556697,1.82296 l 0.712509,0.810821 -0.147012,0.235221 c -0.04058,0.06988 -9.06e-4,0.118993 0.09831,0.152893 l 0.09651,0.02006 -1.853426,2.813654 0.375194,0.61365 0.75039,-0.169496 0.193009,-0.287802 -0.184892,-0.265659 0.407663,-0.06711 0.0947,-0.141132 -0.21285,-0.249057 0.139795,-0.20824 0.406761,-0.03944 0.132582,-0.197171 -0.227282,-0.227608 0.145208,-0.21585 0.414878,-0.05189 0.564596,-0.826732 0.0956,0.04012 c 0.165952,0.07748 0.251633,0.02767 0.270573,-0.126604 z m 1.968869,0.675911 -0.275983,0.790066 -0.383313,0.116228 -0.08027,0.230376 0.279592,0.18195 -0.07305,0.209623 -0.378802,0.102391 -0.07757,0.221386 0.271475,0.204087 -0.05231,0.150126 -0.372489,0.129371 0.248928,0.224843 -0.107327,0.306478 -0.671924,0.281574 -0.524912,-0.527861 1.001121,-2.866237 -0.242613,-0.04981 c -0.0496,-0.01039 -0.08027,-0.04981 -0.06674,-0.08855 L 79.83577,25.56415 c -0.734155,-0.426856 -1.097626,-1.165726 -0.845091,-1.890069 0.324688,-0.930505 1.549482,-1.492268 2.763454,-1.283335 0.0054,0.04981 0.0044,0.100314 -0.0044,0.150817 -0.02255,0.125913 -0.0938,0.255284 -0.225477,0.380505 -0.01803,0.0166 -0.03697,0.0339 -0.05682,0.0505 -0.387822,-0.01937 -0.751292,0.172955 -0.855914,0.471824 -0.04511,0.12868 -0.03516,0.258742 0.01803,0.375662 0.01263,0.0415 0.03337,0.08164 0.06043,0.121069 0.06404,0.08994 0.157835,0.158428 0.267869,0.202013 0.07215,0.03666 0.153324,0.06434 0.240811,0.08302 0.435622,0.08925 0.882067,-0.103084 1.011942,-0.431701 0.131679,-0.08925 0.246221,-0.183333 0.34453,-0.28019 0.191205,-0.188868 0.321982,-0.389498 0.399545,-0.593585 0.526717,0.435849 0.758507,1.063335 0.542952,1.680444 -0.252536,0.724341 -1.050727,1.225222 -1.96346,1.313086 l -0.101916,0.291257 c -0.01353,0.03804 -0.06494,0.06157 -0.115443,0.05119 z"
         id="path1-8"
         style="fill:#ffffff;stroke-width:0.0971272" />
    </g>
    <rect
       style="fill:#aa0000;fill-opacity:1;stroke:#fdfdfd;stroke-width:0.278;stroke-dasharray:none;stroke-opacity:1"
       id="rect1-3"
       width="49.728249"
       height="11.892833"
       x="14.823376"
       y="77.132751"
       rx="6.0366125"
       ry="6.0366125"
       inkscape:export-filename="01_finguer.com_web/public/img/tarifes_finguer2.svg"
       inkscape:export-xdpi="96"
       inkscape:export-ydpi="96" />
    <text
       xml:space="preserve"
       style="font-style:normal;font-variant:normal;font-weight:bold;font-stretch:normal;font-size:3.43958px;font-family:arial;-inkscape-font-specification:'arial Bold';text-align:start;writing-mode:lr-tb;direction:ltr;text-anchor:start;white-space:pre;inline-size:71.5256;display:inline;fill:#ffffff;fill-opacity:1;stroke-width:0.264999"
       x="5.6616702"
       y="49.384079"
       id="text12"
       transform="translate(-1.7790128,0.7450285)"><tspan
         x="5.6616702"
         y="49.384079"
         id="tspan23"><tspan
           style="font-weight:normal;-inkscape-font-specification:arial"
           id="tspan21">Solo tienes que llegar con tu coche </tspan><tspan
           style="font-weight:normal;-inkscape-font-specification:arial"
           id="tspan22">a la </tspan></tspan><tspan
         x="5.6616702"
         y="53.683552"
         id="tspan26"><tspan
           style="font-weight:normal;-inkscape-font-specification:arial"
           id="tspan24">terminal que te haya tocado. </tspan><tspan
           style="font-weight:normal;-inkscape-font-specification:arial"
           id="tspan25">Rogamos nos </tspan></tspan><tspan
         x="5.6616702"
         y="57.983028"
         id="tspan29"><tspan
           style="font-weight:normal;-inkscape-font-specification:arial"
           id="tspan27">llames 20 min. antes </tspan><tspan
           style="font-weight:normal;-inkscape-font-specification:arial"
           id="tspan28">de llegar a la terminal </tspan></tspan><tspan
         x="5.6616702"
         y="62.282505"
         id="tspan32"><tspan
           style="font-weight:normal;-inkscape-font-specification:arial"
           id="tspan30">donde </tspan><tspan
           style="font-weight:normal;-inkscape-font-specification:arial"
           id="tspan31">recogeremos tu coche.
</tspan></tspan><tspan
         x="5.6616702"
         y="66.581982"
         id="tspan34"><tspan
           style="font-weight:normal;-inkscape-font-specification:arial"
           id="tspan33"> 
</tspan></tspan><tspan
         x="5.6616702"
         y="70.881458"
         id="tspan35">Servicio disponible de 8.00h a 21.00h.</tspan></text>
    <text
       xml:space="preserve"
       style="font-style:normal;font-variant:normal;font-weight:bold;font-stretch:normal;font-size:4.71751px;line-height:1;font-family:arial;-inkscape-font-specification:'arial Bold';text-align:center;writing-mode:lr-tb;direction:ltr;text-anchor:middle;fill:#ba801c;fill-opacity:1;stroke-width:0.264999"
       x="39.6931"
       y="82.873405"
       id="text1-7-0"
       transform="scale(1.0055778,0.99445312)"><tspan
         sodipodi:role="line"
         id="tspan1-3"
         style="font-style:normal;font-variant:normal;font-weight:bold;font-stretch:normal;font-size:4.71751px;line-height:1;font-family:arial;-inkscape-font-specification:'arial Bold';fill:#ffffff;stroke-width:0.265"
         x="39.6931"
         y="82.873405">Configura </tspan><tspan
         sodipodi:role="line"
         style="font-style:normal;font-variant:normal;font-weight:bold;font-stretch:normal;font-size:4.71751px;line-height:1;font-family:arial;-inkscape-font-specification:'arial Bold';fill:#ffffff;stroke-width:0.265"
         x="39.6931"
         y="87.590912"
         id="tspan9-6">tu reserva</tspan></text>
  </g>
</svg>
