<?xml version="1.0" encoding="UTF-8" standalone="no"?>
<!-- Created with Inkscape (http://www.inkscape.org/) -->

<svg
   width="400"
   height="150"
   viewBox="0 0 105.83333 39.6875"
   version="1.1"
   id="svg1"
   xml:space="preserve"
   inkscape:version="1.4.2 (ebf0e940d0, 2025-05-08)"
   sodipodi:docname="tarifes_finguer.svg"
   xmlns:inkscape="http://www.inkscape.org/namespaces/inkscape"
   xmlns:sodipodi="http://sodipodi.sourceforge.net/DTD/sodipodi-0.dtd"
   xmlns="http://www.w3.org/2000/svg"
   xmlns:svg="http://www.w3.org/2000/svg"><sodipodi:namedview
     id="namedview1"
     pagecolor="#ffffff"
     bordercolor="#000000"
     borderopacity="0.25"
     inkscape:showpageshadow="2"
     inkscape:pageopacity="0.0"
     inkscape:pagecheckerboard="0"
     inkscape:deskcolor="#d1d1d1"
     inkscape:document-units="mm"
     showguides="false"
     inkscape:zoom="2.06"
     inkscape:cx="154.61165"
     inkscape:cy="34.708738"
     inkscape:window-width="1864"
     inkscape:window-height="980"
     inkscape:window-x="56"
     inkscape:window-y="29"
     inkscape:window-maximized="1"
     inkscape:current-layer="layer1"
     showgrid="false" /><defs
     id="defs1"><rect
       x="514.56311"
       y="96.116508"
       width="186.40778"
       height="41.747574"
       id="rect4" /><inkscape:path-effect
       effect="fillet_chamfer"
       id="path-effect4"
       is_visible="true"
       lpeversion="1"
       nodesatellites_param="F,0,0,1,0,7.5335672,0,1 @ F,0,0,1,0,4.5693829,0,1 @ F,0,0,1,0,5.2286477,0,1 @ F,0,0,1,0,0,0,1"
       radius="0"
       unit="px"
       method="auto"
       mode="F"
       chamfer_steps="1"
       flexible="false"
       use_knot_distance="true"
       apply_no_radius="true"
       apply_with_radius="true"
       only_selected="false"
       hide_knots="false" /><inkscape:path-effect
       effect="fillet_chamfer"
       id="path-effect4-1"
       is_visible="true"
       lpeversion="1"
       nodesatellites_param="F,0,0,1,0,7.5335672,0,1 @ F,0,0,1,0,4.5693829,0,1 @ F,0,0,1,0,5.2286477,0,1 @ F,0,0,1,0,0,0,1"
       radius="0"
       unit="px"
       method="auto"
       mode="F"
       chamfer_steps="1"
       flexible="false"
       use_knot_distance="true"
       apply_no_radius="true"
       apply_with_radius="true"
       only_selected="false"
       hide_knots="false" /></defs><g
     inkscape:label="Capa 1"
     inkscape:groupmode="layer"
     id="layer1"><rect
       style="fill:#02217c;fill-opacity:1;stroke-width:0.278111"
       id="rect1"
       width="105.83334"
       height="39.6875"
       x="0"
       y="0"
       rx="0"
       ry="19.84375" /><text
       xml:space="preserve"
       style="font-style:normal;font-variant:normal;font-weight:bold;font-stretch:normal;font-size:7.40833px;font-family:arial;-inkscape-font-specification:'arial Bold';text-align:start;writing-mode:lr-tb;direction:ltr;text-anchor:start;fill:#ba801c;fill-opacity:1;stroke-width:0.264999"
       x="5.8311515"
       y="8.4224663"
       id="text1"><tspan
         sodipodi:role="line"
         id="tspan1"
         style="font-style:normal;font-variant:normal;font-weight:bold;font-stretch:normal;font-size:7.40833px;font-family:arial;-inkscape-font-specification:'arial Bold';fill:#ffffff;stroke-width:0.265"
         x="5.8311515"
         y="8.4224663">Finguer Class</tspan></text><text
       xml:space="preserve"
       style="font-style:normal;font-variant:normal;font-weight:bold;font-stretch:normal;font-size:4.23333px;font-family:arial;-inkscape-font-specification:'arial Bold';text-align:start;writing-mode:lr-tb;direction:ltr;text-anchor:start;fill:#ffffff;fill-opacity:1;stroke-width:0.264999"
       x="6.1561961"
       y="15.031343"
       id="text2"><tspan
         sodipodi:role="line"
         id="tspan2"
         style="font-style:normal;font-variant:normal;font-weight:bold;font-stretch:normal;font-size:4.23333px;font-family:arial;-inkscape-font-specification:'arial Bold';stroke-width:0.265"
         x="6.1561961"
         y="15.031343">La opción para llegar del parking</tspan><tspan
         sodipodi:role="line"
         style="font-style:normal;font-variant:normal;font-weight:bold;font-stretch:normal;font-size:4.23333px;font-family:arial;-inkscape-font-specification:'arial Bold';stroke-width:0.265"
         x="6.1561961"
         y="20.323006"
         id="tspan3">a la terminal en 3 minutos.</tspan></text><path
       style="fill:#ffffff;fill-opacity:1;stroke-width:0.266625"
       id="rect3"
       width="22.945047"
       height="14.297853"
       x="129.83162"
       y="56.453453"
       inkscape:path-effect="#path-effect4"
       sodipodi:type="rect"
       d="m 137.36519,56.453453 h 10.84209 a 4.5693829,4.5693829 45 0 1 4.56939,4.569383 v 4.499823 a 5.2286477,5.2286477 135 0 1 -5.22865,5.228648 h -17.7164 V 63.98702 a 7.5335672,7.5335672 135 0 1 7.53357,-7.533567 z"
       transform="matrix(-0.95708744,0,0,0.83272989,153.09979,-22.139645)" /><text
       xml:space="preserve"
       style="font-style:normal;font-variant:normal;font-weight:bold;font-stretch:normal;font-size:3.65307px;font-family:arial;-inkscape-font-specification:'arial Bold';text-align:start;writing-mode:lr-tb;direction:ltr;text-anchor:start;fill:#02217c;fill-opacity:1;stroke-width:0.264999"
       x="13.020005"
       y="28.660913"
       id="text4"
       transform="scale(1.0045049,0.99551532)"><tspan
         sodipodi:role="line"
         id="tspan4"
         style="font-style:normal;font-variant:normal;font-weight:bold;font-stretch:normal;font-size:3.65307px;font-family:arial;-inkscape-font-specification:'arial Bold';fill:#02217c;fill-opacity:1;stroke-width:0.265"
         x="13.020005"
         y="28.660913">desde</tspan></text><text
       xml:space="preserve"
       style="font-style:normal;font-variant:normal;font-weight:bold;font-stretch:normal;font-size:8.4694px;font-family:arial;-inkscape-font-specification:'arial Bold';text-align:start;writing-mode:lr-tb;direction:ltr;text-anchor:start;fill:#02217c;fill-opacity:1;stroke-width:0.264999"
       x="13.251005"
       y="34.977627"
       id="text5"
       transform="scale(0.97492389,1.0257211)"><tspan
         sodipodi:role="line"
         id="tspan5"
         style="font-style:normal;font-variant:normal;font-weight:bold;font-stretch:normal;font-size:8.4694px;font-family:arial;-inkscape-font-specification:'arial Bold';stroke-width:0.265"
         x="13.251005"
         y="34.977627">30</tspan></text><text
       xml:space="preserve"
       style="font-style:normal;font-variant:normal;font-weight:bold;font-stretch:normal;font-size:4.52441px;font-family:arial;-inkscape-font-specification:'arial Bold';text-align:start;writing-mode:lr-tb;direction:ltr;text-anchor:start;fill:#02217c;fill-opacity:1;stroke-width:0.264999"
       x="23.167723"
       y="34.85294"
       id="text6"
       transform="scale(0.97370027,1.0270101)"><tspan
         sodipodi:role="line"
         id="tspan6"
         style="font-style:normal;font-variant:normal;font-weight:bold;font-stretch:normal;font-size:4.52441px;font-family:arial;-inkscape-font-specification:'arial Bold';stroke-width:0.265"
         x="23.167723"
         y="34.85294">€</tspan></text><path
       class="st0"
       d="m 75.913072,27.774865 c 0.143058,-0.735476 0.545924,-1.067566 1.152078,-1.083863 h 11.799472 c 0.811353,0 2.176164,-0.05704 2.829394,0.537854 1.11067,0.857723 1.974732,2.377579 2.912212,3.367723 0.762423,0.105938 2.526311,0.38913 2.932932,0.780302 0.46874,0.452284 0.463096,1.908985 0.457441,2.526296 0.871595,-0.01834 0.51957,2.265521 -0.04522,2.395912 h -1.214208 c 0.779355,-5.02204 -5.835734,-4.398616 -4.838002,0 H 83.11545 c 1.022197,-4.211179 -5.494998,-5.193174 -4.868123,0.053 -0.485694,-0.053 -0.73418,-0.105944 -1.219863,-0.158914 -0.931825,-0.101867 -1.603887,-0.06723 -1.603887,-1.387428 -0.08655,-2.615938 -0.01889,-5.062784 0.489461,-7.030852 z m 4.725052,6.935096 c -0.534625,0 -0.9676,0.468588 -0.9676,1.047197 0,0.578603 0.432975,1.04719 0.9676,1.04719 0.534625,0 0.967601,-0.468587 0.967601,-1.04719 0,-0.576568 -0.432976,-1.047197 -0.967601,-1.047197 z m 8.909848,-7.110308 h 1.212319 c 0.803832,0 1.876849,1.257038 2.484892,2.495738 0.06211,0.126319 0.545924,0.992185 0.222143,0.992185 H 89.54986 V 30.95515 27.73208 27.599653 Z m 4.811658,7.110308 c -0.534636,0 -0.967611,0.468588 -0.967611,1.047197 0,0.578603 0.432975,1.04719 0.967611,1.04719 0.534626,0 0.96759,-0.468587 0.96759,-1.04719 0,-0.576568 -0.432964,-1.047197 -0.96759,-1.047197 z m 0,-1.083862 c -1.088082,0 -1.969098,0.953478 -1.969098,2.131059 0,1.177575 0.881016,2.131053 1.969098,2.131053 1.088083,0 1.969088,-0.953478 1.969088,-2.131053 0,-1.175546 -0.882894,-2.131059 -1.969088,-2.131059 z m -13.721506,0 c -1.088082,0 -1.969087,0.953478 -1.969087,2.131059 0,1.177575 0.881005,2.131053 1.969087,2.131053 1.088083,0 1.969088,-0.953478 1.969088,-2.131053 0,-1.175546 -0.881005,-2.131059 -1.969088,-2.131059 z"
       id="path1"
       style="clip-rule:evenodd;fill:#ffffff;fill-rule:evenodd;stroke-width:0.195838" /><text
       xml:space="preserve"
       transform="scale(0.26458333)"
       id="text3"
       style="font-style:normal;font-variant:normal;font-weight:bold;font-stretch:normal;font-size:32px;font-family:arial;-inkscape-font-specification:'arial Bold';text-align:start;writing-mode:lr-tb;direction:ltr;white-space:pre;shape-inside:url(#rect4);display:inline;fill:#ffffff;stroke-width:1.00157" /></g></svg>
