<?xml version="1.0" encoding="UTF-8" standalone="no"?>
<!-- Created with Inkscape (http://www.inkscape.org/) -->

<svg
   width="400.00003"
   height="150"
   viewBox="0 0 105.83334 39.6875"
   version="1.1"
   id="svg1"
   xml:space="preserve"
   inkscape:version="1.4.2 (ebf0e940d0, 2025-05-08)"
   sodipodi:docname="tarifes.svg"
   xmlns:inkscape="http://www.inkscape.org/namespaces/inkscape"
   xmlns:sodipodi="http://sodipodi.sourceforge.net/DTD/sodipodi-0.dtd"
   xmlns="http://www.w3.org/2000/svg"
   xmlns:svg="http://www.w3.org/2000/svg"><sodipodi:namedview
     id="namedview1"
     pagecolor="#ffffff"
     bordercolor="#000000"
     borderopacity="0.25"
     inkscape:showpageshadow="2"
     inkscape:pageopacity="0.0"
     inkscape:pagecheckerboard="0"
     inkscape:deskcolor="#d1d1d1"
     inkscape:document-units="mm"
     showguides="false"
     inkscape:zoom="1.45664"
     inkscape:cx="136.27252"
     inkscape:cy="109.15532"
     inkscape:window-width="1392"
     inkscape:window-height="801"
     inkscape:window-x="0"
     inkscape:window-y="0"
     inkscape:window-maximized="1"
     inkscape:current-layer="layer1"
     showgrid="false"><inkscape:page
       x="0"
       y="0"
       width="105.83334"
       height="39.6875"
       id="page2"
       margin="0"
       bleed="0" /></sodipodi:namedview><defs
     id="defs1"><inkscape:path-effect
       effect="fillet_chamfer"
       id="path-effect4-1"
       is_visible="true"
       lpeversion="1"
       nodesatellites_param="F,0,0,1,0,7.5335672,0,1 @ F,0,0,1,0,4.5693829,0,1 @ F,0,0,1,0,5.2286477,0,1 @ F,0,0,1,0,0,0,1"
       radius="0"
       unit="px"
       method="auto"
       mode="F"
       chamfer_steps="1"
       flexible="false"
       use_knot_distance="true"
       apply_no_radius="true"
       apply_with_radius="true"
       only_selected="false"
       hide_knots="false" /></defs><g
     inkscape:label="Capa 1"
     inkscape:groupmode="layer"
     id="layer1"
     transform="translate(-105.30417)"><rect
       style="fill:#02217c;fill-opacity:1;stroke-width:0.278111"
       id="rect1"
       width="105.83334"
       height="39.6875"
       x="0"
       y="0"
       rx="0.19250758"
       ry="19.84375"
       inkscape:export-filename="01_finguer.com_web/public/img/tarifes_finguer.svg"
       inkscape:export-xdpi="96"
       inkscape:export-ydpi="96" /><rect
       style="fill:#ba801c;fill-opacity:1;stroke-width:0.278111"
       id="rect1-6"
       width="105.83334"
       height="39.6875"
       x="105.30418"
       y="0"
       rx="0.19250758"
       ry="6.2535892" /><text
       xml:space="preserve"
       style="font-style:normal;font-variant:normal;font-weight:bold;font-stretch:normal;font-size:7.40833px;font-family:arial;-inkscape-font-specification:'arial Bold';text-align:start;writing-mode:lr-tb;direction:ltr;text-anchor:start;fill:#ba801c;fill-opacity:1;stroke-width:0.264999"
       x="110.38754"
       y="8.4224663"
       id="text1-7"><tspan
         sodipodi:role="line"
         id="tspan1-0"
         style="font-style:normal;font-variant:normal;font-weight:bold;font-stretch:normal;font-size:7.40833px;font-family:arial;-inkscape-font-specification:'arial Bold';fill:#ffffff;stroke-width:0.265"
         x="110.38754"
         y="8.4224663">Gold Finguer Class</tspan></text><text
       xml:space="preserve"
       style="font-style:normal;font-variant:normal;font-weight:bold;font-stretch:normal;font-size:4.23333px;font-family:arial;-inkscape-font-specification:'arial Bold';text-align:start;writing-mode:lr-tb;direction:ltr;text-anchor:start;fill:#ffffff;fill-opacity:1;stroke-width:0.264999"
       x="110.71258"
       y="15.031343"
       id="text2-9"><tspan
         sodipodi:role="line"
         style="font-style:normal;font-variant:normal;font-weight:bold;font-stretch:normal;font-size:4.23333px;font-family:arial;-inkscape-font-specification:'arial Bold';stroke-width:0.265"
         x="110.71258"
         y="15.031343"
         id="tspan3-6">Llegas a la terminal. nos das las llaves</tspan><tspan
         sodipodi:role="line"
         style="font-style:normal;font-variant:normal;font-weight:bold;font-stretch:normal;font-size:4.23333px;font-family:arial;-inkscape-font-specification:'arial Bold';stroke-width:0.265"
         x="110.71258"
         y="20.323006"
         id="tspan11">y disfrutas del viaje.</tspan></text><path
       style="fill:#ffffff;fill-opacity:1;stroke-width:0.264999"
       id="rect3-0"
       width="22.945047"
       height="14.297853"
       x="129.83162"
       y="56.453453"
       inkscape:path-effect="#path-effect4-1"
       sodipodi:type="rect"
       d="m 137.36519,56.453453 h 10.84209 a 4.5693829,4.5693829 45 0 1 4.56939,4.569383 v 4.499823 a 5.2286477,5.2286477 135 0 1 -5.22865,5.228648 h -17.7164 V 63.98702 a 7.5335672,7.5335672 135 0 1 7.53357,-7.533567 z"
       transform="matrix(-0.95722252,0,0,0.84285714,257.79554,-22.582196)" /><text
       xml:space="preserve"
       style="font-style:normal;font-variant:normal;font-weight:bold;font-stretch:normal;font-size:3.70417px;font-family:arial;-inkscape-font-specification:'arial Bold';text-align:start;writing-mode:lr-tb;direction:ltr;text-anchor:start;fill:#ba801c;fill-opacity:1;stroke-width:0.264999"
       x="117.17602"
       y="28.697489"
       id="text4-6"><tspan
         sodipodi:role="line"
         id="tspan4-2"
         style="font-style:normal;font-variant:normal;font-weight:bold;font-stretch:normal;font-size:3.70417px;font-family:arial;-inkscape-font-specification:'arial Bold';fill:#ba801c;fill-opacity:1;stroke-width:0.265"
         x="117.17602"
         y="28.697489">desde</tspan></text><text
       xml:space="preserve"
       style="font-style:normal;font-variant:normal;font-weight:bold;font-stretch:normal;font-size:8.46667px;font-family:arial;-inkscape-font-specification:'arial Bold';text-align:start;writing-mode:lr-tb;direction:ltr;text-anchor:start;fill:#ba801c;fill-opacity:1;stroke-width:0.264999"
       x="115.3468"
       y="35.835297"
       id="text5-6"><tspan
         sodipodi:role="line"
         id="tspan5-1"
         style="font-style:normal;font-variant:normal;font-weight:bold;font-stretch:normal;font-size:8.46667px;font-family:arial;-inkscape-font-specification:'arial Bold';fill:#ba801c;fill-opacity:1;stroke-width:0.265"
         x="115.3468"
         y="35.835297">140</tspan></text><text
       xml:space="preserve"
       style="font-style:normal;font-variant:normal;font-weight:bold;font-stretch:normal;font-size:4.7625px;font-family:arial;-inkscape-font-specification:'arial Bold';text-align:start;writing-mode:lr-tb;direction:ltr;text-anchor:start;fill:#ba801c;fill-opacity:1;stroke-width:0.264999"
       x="129.80327"
       y="34.085953"
       id="text6-8"><tspan
         sodipodi:role="line"
         id="tspan6-7"
         style="font-style:normal;font-variant:normal;font-weight:bold;font-stretch:normal;font-size:4.7625px;font-family:arial;-inkscape-font-specification:'arial Bold';fill:#ba801c;fill-opacity:1;stroke-width:0.265"
         x="129.80327"
         y="34.085953">€</tspan></text><text
       xml:space="preserve"
       style="font-style:normal;font-variant:normal;font-weight:bold;font-stretch:normal;font-size:2.91042px;font-family:arial;-inkscape-font-specification:'arial Bold';text-align:start;writing-mode:lr-tb;direction:ltr;text-anchor:start;fill:#ffffff;fill-opacity:1;stroke-width:0.264999"
       x="139.35059"
       y="25.944578"
       id="text7"><tspan
         sodipodi:role="line"
         id="tspan7"
         style="font-style:normal;font-variant:normal;font-weight:bold;font-stretch:normal;font-size:2.91042px;font-family:arial;-inkscape-font-specification:'arial Bold';fill:#ffffff;stroke-width:0.265"
         x="139.35059"
         y="25.944578">* Rogamos nos llames 20 min.</tspan><tspan
         sodipodi:role="line"
         style="font-style:normal;font-variant:normal;font-weight:bold;font-stretch:normal;font-size:2.91042px;font-family:arial;-inkscape-font-specification:'arial Bold';fill:#ffffff;stroke-width:0.265"
         x="139.35059"
         y="29.582603"
         id="tspan8">antes de llegar a la terminal</tspan><tspan
         sodipodi:role="line"
         style="font-style:normal;font-variant:normal;font-weight:bold;font-stretch:normal;font-size:2.91042px;font-family:arial;-inkscape-font-specification:'arial Bold';fill:#ffffff;stroke-width:0.265"
         x="139.35059"
         y="33.220627"
         id="tspan9">donde recogeremos tu coche.</tspan><tspan
         sodipodi:role="line"
         style="font-style:normal;font-variant:normal;font-weight:bold;font-stretch:normal;font-size:2.91042px;font-family:arial;-inkscape-font-specification:'arial Bold';fill:#ffffff;stroke-width:0.265"
         x="139.35059"
         y="36.858654"
         id="tspan10">* Disponible de 8.00h a 21.00h.</tspan></text><g
       id="g2"
       transform="matrix(1.7225478,0,0,1.7225478,60.016744,-12.95692)">

<path
   d="m 81.387053,23.891311 c -0.134385,0.05604 -0.30214,0.01799 -0.374294,-0.0844 -0.07305,-0.103083 -0.02345,-0.231762 0.110935,-0.28711 0.634945,-0.264277 0.930771,-0.606039 0.990298,-0.940191 0.03158,-0.17849 -0.0044,-0.357673 -0.09199,-0.523711 -0.08929,-0.168114 -0.230889,-0.321007 -0.410369,-0.444152 -0.349039,-0.239371 -0.838776,-0.365284 -1.35016,-0.267736 -0.207439,0.03944 -0.38692,0.118993 -0.543852,0.231069 -0.166853,0.118995 -0.311159,0.274656 -0.437427,0.458681 -0.07125,0.103773 -0.238104,0.143207 -0.372489,0.08925 -0.135286,-0.05466 -0.186695,-0.182642 -0.116346,-0.285724 0.155129,-0.225535 0.336412,-0.419246 0.551067,-0.572831 0.224575,-0.159812 0.485229,-0.274655 0.788269,-0.332077 0.703491,-0.133522 1.373611,0.03666 1.849819,0.363209 0.241713,0.166038 0.433819,0.372893 0.554675,0.601195 0.121758,0.230379 0.171363,0.483587 0.125366,0.740254 -0.08207,0.457989 -0.464485,0.917362 -1.273498,1.254279 z m -2.115882,1.672145 c -1.046217,-1.077867 -1.071471,-2.099002 0.19842,-3.048185 l -0.914538,-0.387423 c -0.732351,-0.218617 -2.076198,1.392644 -1.556697,1.82296 l 0.712509,0.810821 -0.147012,0.235221 c -0.04058,0.06988 -9.06e-4,0.118993 0.09831,0.152893 l 0.09651,0.02006 -1.853426,2.813654 0.375194,0.61365 0.75039,-0.169496 0.193009,-0.287802 -0.184892,-0.265659 0.407663,-0.06711 0.0947,-0.141132 -0.21285,-0.249057 0.139795,-0.20824 0.406761,-0.03944 0.132582,-0.197171 -0.227282,-0.227608 0.145208,-0.21585 0.414878,-0.05189 0.564596,-0.826732 0.0956,0.04012 c 0.165952,0.07748 0.251633,0.02767 0.270573,-0.126604 z m 1.968869,0.675911 -0.275983,0.790066 -0.383313,0.116228 -0.08027,0.230376 0.279592,0.18195 -0.07305,0.209623 -0.378802,0.102391 -0.07757,0.221386 0.271475,0.204087 -0.05231,0.150126 -0.372489,0.129371 0.248928,0.224843 -0.107327,0.306478 -0.671924,0.281574 -0.524912,-0.527861 1.001121,-2.866237 -0.242613,-0.04981 c -0.0496,-0.01039 -0.08027,-0.04981 -0.06674,-0.08855 L 79.83577,25.56415 c -0.734155,-0.426856 -1.097626,-1.165726 -0.845091,-1.890069 0.324688,-0.930505 1.549482,-1.492268 2.763454,-1.283335 0.0054,0.04981 0.0044,0.100314 -0.0044,0.150817 -0.02255,0.125913 -0.0938,0.255284 -0.225477,0.380505 -0.01803,0.0166 -0.03697,0.0339 -0.05682,0.0505 -0.387822,-0.01937 -0.751292,0.172955 -0.855914,0.471824 -0.04511,0.12868 -0.03516,0.258742 0.01803,0.375662 0.01263,0.0415 0.03337,0.08164 0.06043,0.121069 0.06404,0.08994 0.157835,0.158428 0.267869,0.202013 0.07215,0.03666 0.153324,0.06434 0.240811,0.08302 0.435622,0.08925 0.882067,-0.103084 1.011942,-0.431701 0.131679,-0.08925 0.246221,-0.183333 0.34453,-0.28019 0.191205,-0.188868 0.321982,-0.389498 0.399545,-0.593585 0.526717,0.435849 0.758507,1.063335 0.542952,1.680444 -0.252536,0.724341 -1.050727,1.225222 -1.96346,1.313086 l -0.101916,0.291257 c -0.01353,0.03804 -0.06494,0.06157 -0.115443,0.05119 z"
   id="path1-8"
   style="fill:#ffffff;stroke-width:0.0789912" />

</g></g></svg>
